<svg width="10" height="10" viewBox="0 0 10 10" fill="none" xmlns="http://www.w3.org/2000/svg">
<path d="M9.57084 2.22683C10.0757 1.72192 10.0757 0.903305 9.57084 0.398399C9.06593 -0.106507 8.24732 -0.106507 7.74241 0.398399L4.99977 3.14104L2.25713 0.398399C1.75222 -0.106507 0.93361 -0.106507 0.428703 0.398399C-0.0762027 0.903305 -0.0762027 1.72192 0.428704 2.22683L3.17134 4.96947L0.428703 7.71211C-0.0762027 8.21701 -0.0762034 9.03563 0.428703 9.54053C0.933609 10.0454 1.75222 10.0454 2.25713 9.54053L4.99977 6.79789L7.74241 9.54053C8.24732 10.0454 9.06593 10.0454 9.57084 9.54053C10.0757 9.03563 10.0757 8.21701 9.57084 7.71211L6.8282 4.96947L9.57084 2.22683Z" fill="black"/>
</svg>
