<svg width="20" height="22" viewBox="0 0 20 22" fill="none" xmlns="http://www.w3.org/2000/svg">
<path fill-rule="evenodd" clip-rule="evenodd" d="M4.47461 5.732L5.54261 6.366C5.69561 6.457 5.86361 6.5 6.02761 6.5C6.36361 6.5 6.69061 6.32 6.87061 6C7.13861 5.521 6.97961 4.91 6.51461 4.634L5.44661 4L6.51461 3.366C6.97961 3.09 7.13961 2.478 6.87061 2C6.60161 1.521 6.00761 1.356 5.54161 1.634L4.47361 2.268V1C4.47361 0.447 4.03861 0 3.50061 0C2.96261 0 2.52761 0.447 2.52761 1V2.268L1.45961 1.634C0.992613 1.357 0.399613 1.523 0.130613 2C-0.137387 2.479 0.0216127 3.09 0.486613 3.366L1.55461 4L0.486613 4.634C0.0216127 4.91 -0.138387 5.522 0.130613 6C0.310613 6.321 0.637613 6.5 0.973613 6.5C1.13861 6.5 1.30561 6.457 1.45861 6.366L2.52661 5.732V7C2.52661 7.553 2.96161 8 3.49961 8C4.03761 8 4.47461 7.553 4.47461 7V5.732ZM15.2946 12.25C14.8686 11.533 13.9256 11.286 13.1856 11.701L11.0446 12.902V10.5C11.0446 9.672 10.3536 9 9.50061 9C8.64761 9 7.95661 9.672 7.95661 10.5V12.902L5.81561 11.701C5.07661 11.286 4.13361 11.533 3.70661 12.25C3.27961 12.968 3.53361 13.885 4.27161 14.299L6.41261 15.5L4.27161 16.701C3.53361 17.115 3.28061 18.032 3.70661 18.75C3.99261 19.231 4.51161 19.5 5.04461 19.5C5.30661 19.5 5.57161 19.436 5.81461 19.299L7.95561 18.098V20.5C7.95561 21.328 8.64661 22 9.49961 22C10.3526 22 11.0436 21.328 11.0436 20.5V18.098L13.1846 19.299C13.4276 19.436 13.6936 19.5 13.9546 19.5C14.4886 19.5 15.0066 19.231 15.2926 18.75C15.7196 18.032 15.4656 17.115 14.7276 16.701L12.5866 15.5L14.7276 14.299C15.4676 13.885 15.7206 12.968 15.2946 12.25ZM17.4466 4L18.5146 4.634C18.9806 4.91 19.1396 5.521 18.8686 6C18.6886 6.32 18.3616 6.5 18.0256 6.5C17.8616 6.5 17.6936 6.457 17.5406 6.366L16.4726 5.732V7C16.4726 7.553 16.0376 8 15.4996 8C14.9616 8 14.5266 7.553 14.5266 7V5.732L13.4586 6.366C13.3056 6.457 13.1386 6.5 12.9736 6.5C12.6376 6.5 12.3106 6.321 12.1306 6C11.8616 5.522 12.0216 4.91 12.4866 4.634L13.5546 4L12.4866 3.366C12.0216 3.09 11.8626 2.479 12.1306 2C12.3996 1.523 12.9926 1.357 13.4596 1.634L14.5276 2.268V1C14.5276 0.447 14.9626 0 15.5006 0C16.0386 0 16.4736 0.447 16.4736 1V2.268L17.5416 1.634C18.0076 1.356 18.6016 1.521 18.8706 2C19.1396 2.478 18.9796 3.09 18.5146 3.366L17.4466 4Z" fill="white"/>
</svg>
