<svg width="24" height="24" viewBox="0 0 24 24" fill="none" xmlns="http://www.w3.org/2000/svg">
<path fill-rule="evenodd" clip-rule="evenodd" d="M17.288 4H18C20.761 4 23 6.239 23 9C23 11.761 20.761 14 18 14H6C3.239 14 1 11.761 1 9C1 6.239 3.239 4 6 4H6.712C7.366 1.693 9.483 0 12 0C14.517 0 16.634 1.693 17.288 4ZM4 17.5C4 16.672 4.672 16 5.5 16C6.328 16 7 16.672 7 17.5C7 18.328 6.328 19 5.5 19C4.672 19 4 18.328 4 17.5ZM8.5 21C7.672 21 7 21.672 7 22.5C7 23.328 7.672 24 8.5 24C9.328 24 10 23.328 10 22.5C10 21.672 9.328 21 8.5 21ZM14 22.5C14 21.672 14.672 21 15.5 21C16.328 21 17 21.672 17 22.5C17 23.328 16.328 24 15.5 24C14.672 24 14 23.328 14 22.5ZM12 16C11.172 16 10.5 16.672 10.5 17.5C10.5 18.328 11.172 19 12 19C12.828 19 13.5 18.328 13.5 17.5C13.5 16.672 12.828 16 12 16ZM17 17.5C17 16.672 17.672 16 18.5 16C19.328 16 20 16.672 20 17.5C20 18.328 19.328 19 18.5 19C17.672 19 17 18.328 17 17.5Z" fill="white"/>
</svg>
