<svg width="24" height="24" viewBox="0 0 24 24" fill="none" xmlns="http://www.w3.org/2000/svg">
<path fill-rule="evenodd" clip-rule="evenodd" d="M15.386 0H22.5C23.329 0 24 0.672 24 1.5C24 2.328 23.329 3 22.5 3H17.388C20.447 4.835 22.5 8.174 22.5 12C22.5 13.165 22.303 14.281 21.953 15.328C20.407 20.694 15.524 24 8.614 24H1.5C0.671 24 0 23.328 0 22.5C0 21.672 0.671 21 1.5 21H6.612C3.553 19.165 1.5 15.826 1.5 12C1.5 10.835 1.697 9.719 2.047 8.672C3.593 3.306 8.476 0 15.386 0ZM8 12C8 14.206 9.794 16 12 16C14.206 16 16 14.206 16 12C16 9.794 14.206 8 12 8C9.794 8 8 9.794 8 12Z" fill="white"/>
</svg>
