<svg width="24" height="24" viewBox="0 0 24 24" fill="none" xmlns="http://www.w3.org/2000/svg">
<path fill-rule="evenodd" clip-rule="evenodd" d="M21.583 1.528C20.927 2.236 20.393 3.062 20.101 3.982L20.0992 3.988C20.0981 3.992 20.097 3.996 20.095 4H0.562C0.2 2.71 0 1.37 0 0H23L21.583 1.528ZM19 24V23C19 21.099 18.185 19.355 16.821 18H23.711C23.386 19.077 22.79 20.104 21.921 20.994L19 24ZM19.775 6H1.268C1.898 7.437 2.752 8.781 3.797 10H21.021C20.181 8.785 19.768 7.397 19.775 6ZM5.825 12H22.679C23.547 13.218 23.991 14.607 24 16H13.559L11.358 15.188C9.273 14.419 7.412 13.328 5.825 12Z" fill="white"/>
</svg>
