<svg width="22" height="24" viewBox="0 0 22 24" fill="none" xmlns="http://www.w3.org/2000/svg">
<path fill-rule="evenodd" clip-rule="evenodd" d="M16.288 4H17C19.761 4 22 6.239 22 9C22 11.761 19.761 14 17 14H5C2.239 14 0 11.761 0 9C0 6.239 2.239 4 5 4H5.712C6.366 1.693 8.483 0 11 0C13.517 0 15.634 1.693 16.288 4ZM9.464 18C9.187 17.521 8.577 17.357 8.098 17.634L7 18.268V17C7 16.447 6.552 16 6 16C5.448 16 5 16.447 5 17V18.268L3.902 17.634C3.422 17.358 2.812 17.523 2.536 18C2.26 18.479 2.424 19.09 2.902 19.366L4 20L2.902 20.634C2.423 20.91 2.26 21.522 2.536 22C2.722 22.321 3.057 22.5 3.403 22.5C3.572 22.5 3.744 22.457 3.902 22.366L5 21.732V23C5 23.553 5.448 24 6 24C6.552 24 7 23.553 7 23V21.732L8.098 22.366C8.256 22.457 8.428 22.5 8.597 22.5C8.943 22.5 9.279 22.32 9.464 22C9.74 21.521 9.576 20.91 9.098 20.634L8 20L9.098 19.366C9.577 19.09 9.74 18.479 9.464 18ZM19.464 18C19.187 17.521 18.577 17.357 18.098 17.634L17 18.268V17C17 16.447 16.552 16 16 16C15.448 16 15 16.447 15 17V18.268L13.902 17.634C13.422 17.358 12.812 17.523 12.536 18C12.26 18.479 12.424 19.09 12.902 19.366L14 20L12.902 20.634C12.423 20.91 12.26 21.522 12.536 22C12.722 22.321 13.057 22.5 13.403 22.5C13.572 22.5 13.744 22.457 13.902 22.366L15 21.732V23C15 23.553 15.448 24 16 24C16.552 24 17 23.553 17 23V21.732L18.098 22.366C18.256 22.457 18.428 22.5 18.597 22.5C18.943 22.5 19.279 22.32 19.464 22C19.74 21.521 19.576 20.91 19.098 20.634L18 20L19.098 19.366C19.577 19.09 19.74 18.479 19.464 18Z" fill="white"/>
</svg>
