<svg width="22" height="20" viewBox="0 0 22 20" fill="none" xmlns="http://www.w3.org/2000/svg">
<path fill-rule="evenodd" clip-rule="evenodd" d="M2.5 0C2.5 0 5 3.368 5 5.085C5 6.801 3.972 8 2.5 8C1.028 8 0 6.801 0 5.085C0 3.368 2.5 0 2.5 0ZM11 0C11 0 8.5 3.368 8.5 5.085C8.5 6.801 9.528 8 11 8C12.472 8 13.5 6.801 13.5 5.085C13.5 3.368 11 0 11 0ZM19.5 0C19.5 0 17 3.368 17 5.085C17 6.801 18.028 8 19.5 8C20.972 8 22 6.801 22 5.085C22 3.368 19.5 0 19.5 0ZM2 16.356C2 18.501 3.439 20 5.5 20C7.561 20 9 18.501 9 16.356C9 14.21 5.5 10 5.5 10C5.5 10 2 14.21 2 16.356ZM16.5 20C14.439 20 13 18.501 13 16.356C13 14.21 16.5 10 16.5 10C16.5 10 20 14.21 20 16.356C20 18.501 18.561 20 16.5 20Z" fill="white"/>
</svg>
