<svg width="10" height="10" viewBox="0 0 10 10" fill="none" xmlns="http://www.w3.org/2000/svg">
<path d="M9.57082 2.22681C10.0757 1.7219 10.0757 0.90329 9.57082 0.398384C9.06592 -0.106522 8.2473 -0.106522 7.7424 0.398384L4.99976 3.14102L2.25712 0.398384C1.75221 -0.106522 0.933595 -0.106522 0.428688 0.398384C-0.076218 0.90329 -0.0762179 1.7219 0.428688 2.22681L3.17133 4.96945L0.428688 7.71209C-0.076218 8.217 -0.0762186 9.03561 0.428687 9.54052C0.933594 10.0454 1.75221 10.0454 2.25711 9.54052L4.99976 6.79788L7.7424 9.54052C8.2473 10.0454 9.06592 10.0454 9.57082 9.54052C10.0757 9.03561 10.0757 8.217 9.57082 7.71209L6.82818 4.96945L9.57082 2.22681Z" fill="black"/>
</svg>
