<svg width="22" height="24" viewBox="0 0 22 24" fill="none" xmlns="http://www.w3.org/2000/svg">
<path fill-rule="evenodd" clip-rule="evenodd" d="M22 9C22 11.761 19.761 14 17 14H5C2.239 14 0 11.761 0 9C0 6.239 2.239 4 5 4H5.712C6.366 1.693 8.483 0 11 0C13.517 0 15.634 1.693 16.288 4H17C19.761 4 22 6.239 22 9ZM3 24C1.528 24 0.5 22.801 0.5 21.085C0.5 19.368 3 16 3 16C3 16 5.5 19.368 5.5 21.085C5.5 22.801 4.472 24 3 24ZM8.5 21.085C8.5 22.801 9.528 24 11 24C12.472 24 13.5 22.801 13.5 21.085C13.5 19.368 11 16 11 16C11 16 8.5 19.368 8.5 21.085ZM19 24C17.528 24 16.5 22.801 16.5 21.085C16.5 19.368 19 16 19 16C19 16 21.5 19.368 21.5 21.085C21.5 22.801 20.472 24 19 24Z" fill="white"/>
</svg>
