<svg width="24" height="24" viewBox="0 0 24 24" fill="none" xmlns="http://www.w3.org/2000/svg">
<path fill-rule="evenodd" clip-rule="evenodd" d="M16.02 6C16.02 10.05 19.303 13.333 23.353 13.333C23.571 13.333 23.786 13.319 24 13.3C22.723 14.739 20.94 15.718 18.926 15.947C18.119 14.721 16.917 13.775 15.465 13.322C14.54 11.088 12.503 9.475 10.103 9.091C10.054 8.733 10.02 8.371 10.02 8C10.02 3.582 13.602 0 18.02 0C18.369 0 18.71 0.03 19.047 0.073C17.215 1.406 16.02 3.561 16.02 6ZM9 11C11.433 11 13.455 12.739 13.903 15.041C16.197 15.248 18 17.153 18 19.5C18 21.985 15.985 24 13.5 24H4.5C2.015 24 0 21.985 0 19.5C0 17.153 1.804 15.248 4.097 15.041C4.545 12.739 6.567 11 9 11Z" fill="white"/>
</svg>
