<svg width="21" height="21" viewBox="0 0 21 21" fill="none" xmlns="http://www.w3.org/2000/svg">
<path d="M12.9985 2.49902C12.9985 1.39445 12.1031 0.499023 10.9985 0.499023C9.89397 0.499023 8.99854 1.39445 8.99854 2.49902L8.99853 8.49902H2.99854C1.89397 8.49902 0.998535 9.39445 0.998535 10.499C0.998535 11.6036 1.89397 12.499 2.99854 12.499H8.99853L8.99853 18.499C8.99853 19.6036 9.89396 20.499 10.9985 20.499C12.1031 20.499 12.9985 19.6036 12.9985 18.499V12.499H18.9985C20.1031 12.499 20.9985 11.6036 20.9985 10.499C20.9985 9.39445 20.1031 8.49902 18.9985 8.49902H12.9985V2.49902Z" fill="black"/>
</svg>
