<svg width="21" height="20" viewBox="0 0 21 20" fill="none" xmlns="http://www.w3.org/2000/svg">
<g clip-path="url(#clip0)">
<path d="M12.9985 1.99902C12.9985 0.894454 12.1031 -0.000976562 10.9985 -0.000976562C9.89397 -0.000976562 8.99854 0.894454 8.99854 1.99902L8.99853 7.99902H2.99854C1.89397 7.99902 0.998535 8.89445 0.998535 9.99902C0.998535 11.1036 1.89397 11.999 2.99854 11.999H8.99853V17.999C8.99853 19.1036 9.89396 19.999 10.9985 19.999C12.1031 19.999 12.9985 19.1036 12.9985 17.999V11.999H18.9985C20.1031 11.999 20.9985 11.1036 20.9985 9.99902C20.9985 8.89445 20.1031 7.99902 18.9985 7.99902H12.9985V1.99902Z" fill="black"/>
</g>
<defs>
<clipPath id="clip0">
<rect width="21" height="20" fill="white"/>
</clipPath>
</defs>
</svg>
