<svg width="30" height="30" viewBox="0 0 30 30" fill="none" xmlns="http://www.w3.org/2000/svg">
<path d="M0 15C0 6.71573 6.71573 0 15 0C23.2843 0 30 6.71573 30 15C30 23.2843 23.2843 30 15 30C6.71573 30 0 23.2843 0 15Z" fill="white"/>
<path d="M19.5708 12.2269C20.0757 11.722 20.0757 10.9034 19.5708 10.3985C19.0659 9.89355 18.2473 9.89355 17.7424 10.3985L14.9998 13.1411L12.2571 10.3985C11.7522 9.89355 10.9336 9.89355 10.4287 10.3985C9.92382 10.9034 9.92382 11.722 10.4287 12.2269L13.1713 14.9696L10.4287 17.7122C9.92382 18.2171 9.92382 19.0357 10.4287 19.5406C10.9336 20.0455 11.7522 20.0455 12.2571 19.5406L14.9998 16.798L17.7424 19.5406C18.2473 20.0455 19.0659 20.0455 19.5708 19.5406C20.0757 19.0357 20.0757 18.2171 19.5708 17.7122L16.8282 14.9696L19.5708 12.2269Z" fill="black"/>
</svg>
