<svg width="24" height="24" viewBox="0 0 24 24" fill="none" xmlns="http://www.w3.org/2000/svg">
<path fill-rule="evenodd" clip-rule="evenodd" d="M23 11C23 12.131 22.611 13.162 21.978 14H2.023C1.39 13.162 1 12.131 1 11C1 8.239 3.239 6 6 6H6.712C7.366 3.693 9.483 2 12 2C14.517 2 16.634 3.693 17.288 6H18C20.761 6 23 8.239 23 11ZM23 17C23 16.45 22.55 16 22 16H2C1.45 16 1 16.45 1 17C1 17.55 1.45 18 2 18H22C22.55 18 23 17.55 23 17ZM23 21C23 20.45 22.55 20 22 20H2C1.45 20 1 20.45 1 21C1 21.55 1.45 22 2 22H22C22.55 22 23 21.55 23 21Z" fill="white"/>
</svg>
