<svg width="153" height="93" viewBox="0 0 153 93" fill="none" xmlns="http://www.w3.org/2000/svg">
<path fill-rule="evenodd" clip-rule="evenodd" d="M88.048 50.863C88.1811 51.5198 88.4088 52.1093 88.731 52.6321C89.0526 53.1549 89.4805 53.5719 90.0134 53.8836C90.5464 54.1953 91.213 54.3509 92.0127 54.3509C92.8118 54.3509 93.4831 54.1953 94.0283 53.8836C94.5723 53.5719 95.0049 53.1549 95.3271 52.6321C95.6487 52.1093 95.8769 51.5198 96.01 50.863C96.1437 50.2069 96.2102 49.5337 96.2102 48.8436C96.2102 48.1541 96.1437 47.4752 96.01 46.8073C95.8769 46.14 95.6487 45.5505 95.3271 45.0382C95.0049 44.5265 94.5723 44.1095 94.0283 43.7867C93.4831 43.4645 92.8118 43.3025 92.0127 43.3025C91.213 43.3025 90.5464 43.4645 90.0134 43.7867C89.4805 44.1095 89.0526 44.5265 88.731 45.0382C88.4088 45.5505 88.1811 46.14 88.048 46.8073C87.9149 47.4752 87.8484 48.1541 87.8484 48.8436C87.8484 49.5337 87.9149 50.2069 88.048 50.863ZM83.7506 45.0886C84.1721 43.9651 84.7716 43.0084 85.5491 42.2183C86.3266 41.4282 87.2594 40.8165 88.3475 40.3825C89.4356 39.9486 90.6573 39.7316 92.0127 39.7316C93.367 39.7316 94.5945 39.9486 95.6937 40.3825C96.7934 40.8165 97.7309 41.4282 98.509 42.2183C99.2859 43.0084 99.8854 43.9651 100.308 45.0886C100.729 46.2126 100.941 47.4641 100.941 48.8437C100.941 50.2233 100.729 51.4695 100.308 52.5818C99.8854 53.6947 99.2859 54.6457 98.509 55.4357C97.7309 56.2258 96.7934 56.8323 95.6937 57.2545C94.5945 57.6768 93.367 57.8891 92.0127 57.8891C90.6573 57.8891 89.4356 57.6768 88.3475 57.2545C87.2594 56.8323 86.3266 56.2258 85.5491 55.4357C84.7716 54.6457 84.1721 53.6947 83.7506 52.5818C83.328 51.4695 83.1173 50.2233 83.1173 48.8437C83.1173 47.4641 83.328 46.2126 83.7506 45.0886Z" fill="black"/>
<path fill-rule="evenodd" clip-rule="evenodd" d="M112.504 53.8836C113.026 53.5719 113.448 53.166 113.77 52.6654C114.092 52.1642 114.319 51.5806 114.453 50.9127C114.586 50.2455 114.653 49.5671 114.653 48.877C114.653 48.1875 114.58 47.5085 114.436 46.8406C114.291 46.1734 114.053 45.578 113.72 45.0552C113.386 44.5324 112.959 44.1095 112.437 43.7867C111.915 43.4645 111.276 43.3025 110.521 43.3025C109.744 43.3025 109.094 43.4645 108.572 43.7867C108.051 44.1095 107.628 44.5265 107.306 45.0382C106.985 45.5505 106.757 46.14 106.623 46.8073C106.49 47.4752 106.424 48.1653 106.424 48.877C106.424 49.5671 106.496 50.2455 106.64 50.9127C106.784 51.5806 107.018 52.1642 107.34 52.6654C107.661 53.166 108.09 53.5719 108.623 53.8836C109.156 54.1953 109.799 54.3509 110.555 54.3509C111.332 54.3509 111.981 54.1953 112.504 53.8836ZM106.357 40.1989V42.4019H106.424C107.001 41.4674 107.734 40.7884 108.623 40.3656C109.51 39.9433 110.488 39.7316 111.554 39.7316C112.909 39.7316 114.075 39.9878 115.052 40.4989C116.03 41.0112 116.84 41.6896 117.484 42.5352C118.128 43.3809 118.606 44.3657 118.917 45.4892C119.228 46.6132 119.383 47.7869 119.383 49.0103C119.383 50.1677 119.228 51.28 118.917 52.3479C118.606 53.4164 118.134 54.3626 117.501 55.1854C116.868 56.0089 116.079 56.665 115.136 57.1545C114.191 57.6434 113.087 57.8891 111.821 57.8891C110.754 57.8891 109.772 57.6715 108.872 57.2382C107.973 56.8042 107.234 56.1644 106.657 55.3188H106.59V60.0564H101.86V40.1989H106.357Z" fill="black"/>
<path fill-rule="evenodd" clip-rule="evenodd" d="M33.5864 57.4552H38.3169V40.1989H33.5864V57.4552Z" fill="black"/>
<path fill-rule="evenodd" clip-rule="evenodd" d="M44.3124 53.1661C44.5237 53.5328 44.7957 53.8334 45.129 54.0673C45.4618 54.3006 45.8453 54.4732 46.2784 54.5843C46.7115 54.696 47.161 54.7515 47.6274 54.7515C47.9607 54.7515 48.3103 54.7129 48.6769 54.6346C49.0435 54.5568 49.3762 54.4346 49.6763 54.2673C49.9763 54.1006 50.2261 53.8784 50.4258 53.6C50.626 53.3217 50.7258 52.9714 50.7258 52.5485C50.7258 51.8368 50.2536 51.3023 49.3097 50.9467C48.3658 50.5906 47.0495 50.2344 45.3619 49.8782C44.6732 49.7227 44.0013 49.5396 43.3463 49.3273C42.6908 49.1162 42.1083 48.8384 41.5975 48.4928C41.0862 48.1484 40.6758 47.7144 40.3647 47.1916C40.0535 46.6688 39.8983 46.029 39.8983 45.2722C39.8983 44.1599 40.1148 43.2476 40.548 42.5353C40.9811 41.8235 41.5526 41.2615 42.2635 40.8498C42.9745 40.4381 43.7736 40.1486 44.6626 39.982C45.5505 39.8147 46.4617 39.7316 47.3945 39.7316C48.3273 39.7316 49.2315 39.8205 50.1094 39.9983C50.9867 40.1767 51.7695 40.4773 52.4583 40.8995C53.1465 41.3224 53.7186 41.8844 54.1739 42.585C54.6286 43.2862 54.9012 44.1704 54.9899 45.2389H50.4923C50.4258 44.3266 50.0814 43.709 49.4597 43.3862C48.8375 43.0639 48.1049 42.9025 47.2608 42.9025C46.9946 42.9025 46.7057 42.9189 46.3946 42.9522C46.0834 42.9856 45.8003 43.0581 45.5452 43.1692C45.2896 43.2809 45.073 43.4423 44.8956 43.6534C44.7175 43.8651 44.6294 44.1488 44.6294 44.5044C44.6294 44.9272 44.7841 45.2722 45.0958 45.5389C45.4063 45.8062 45.812 46.0231 46.3117 46.1898C46.8113 46.3571 47.3828 46.5068 48.0272 46.6407C48.6711 46.774 49.3266 46.9191 49.9926 47.0746C50.6809 47.2302 51.3527 47.4197 52.0083 47.6419C52.6632 47.8647 53.2463 48.1595 53.7571 48.5267C54.2679 48.894 54.6788 49.3502 54.9899 49.8952C55.301 50.4403 55.4563 51.1134 55.4563 51.914C55.4563 53.0491 55.2287 54.0006 54.7734 54.7679C54.3181 55.5358 53.7238 56.1533 52.9912 56.6206C52.2581 57.0879 51.4199 57.4166 50.476 57.6049C49.5315 57.7938 48.5713 57.8891 47.5941 57.8891C46.5948 57.8891 45.617 57.7885 44.6626 57.5885C43.7071 57.3879 42.8578 57.0546 42.1141 56.5873C41.3693 56.12 40.7587 55.5024 40.2812 54.7346C39.8037 53.9667 39.5428 53.0047 39.4984 51.8473H43.996C43.996 52.3596 44.1011 52.7988 44.3124 53.1661Z" fill="black"/>
<path fill-rule="evenodd" clip-rule="evenodd" d="M61.1166 50.8631C61.2497 51.5198 61.4774 52.1093 61.7996 52.6321C62.1212 53.155 62.5491 53.5719 63.082 53.8837C63.615 54.1954 64.2816 54.3509 65.0807 54.3509C65.8804 54.3509 66.5523 54.1954 67.0963 53.8837C67.6404 53.5719 68.0735 53.155 68.3957 52.6321C68.7173 52.1093 68.9456 51.5198 69.0787 50.8631C69.2117 50.2069 69.2789 49.5338 69.2789 48.8437C69.2789 48.1542 69.2117 47.4752 69.0787 46.8074C68.9456 46.1401 68.7173 45.5506 68.3957 45.0383C68.0735 44.5266 67.6404 44.1096 67.0963 43.7868C66.5523 43.4645 65.8804 43.3025 65.0807 43.3025C64.2816 43.3025 63.615 43.4645 63.082 43.7868C62.5491 44.1096 62.1212 44.5266 61.7996 45.0383C61.4774 45.5506 61.2497 46.1401 61.1166 46.8074C60.983 47.4752 60.9164 48.1542 60.9164 48.8437C60.9164 49.5338 60.983 50.2069 61.1166 50.8631ZM56.8187 45.0886C57.2407 43.9651 57.8402 43.0084 58.6177 42.2183C59.3952 41.4282 60.328 40.8165 61.4161 40.3825C62.5042 39.9486 63.7259 39.7316 65.0807 39.7316C66.4355 39.7316 67.6631 39.9486 68.7623 40.3825C69.8614 40.8165 70.7995 41.4282 71.5776 42.2183C72.3545 43.0084 72.954 43.9651 73.3761 45.0886C73.7981 46.2126 74.0094 47.4641 74.0094 48.8437C74.0094 50.2233 73.7981 51.4695 73.3761 52.5819C72.954 53.6948 72.3545 54.6457 71.5776 55.4358C70.7995 56.2259 69.8614 56.8323 68.7623 57.2546C67.6631 57.6768 66.4355 57.8891 65.0807 57.8891C63.7259 57.8891 62.5042 57.6768 61.4161 57.2546C60.328 56.8323 59.3952 56.2259 58.6177 55.4358C57.8402 54.6457 57.2407 53.6948 56.8187 52.5819C56.3966 51.4695 56.1859 50.2233 56.1859 48.8437C56.1859 47.4641 56.3966 46.2126 56.8187 45.0886Z" fill="black"/>
<path fill-rule="evenodd" clip-rule="evenodd" d="M38.9246 35.9572C38.9246 37.6023 37.5937 38.9357 35.9517 38.9357C34.3097 38.9357 32.9788 37.6023 32.9788 35.9572C32.9788 34.3121 34.3097 32.9788 35.9517 32.9788C37.5937 32.9788 38.9246 34.3121 38.9246 35.9572Z" fill="black"/>
<path fill-rule="evenodd" clip-rule="evenodd" d="M83.3164 43.3698V40.1989H79.852V36.9602H75.1215V40.1989H70.6857V40.203C71.43 40.5913 72.089 41.0732 72.6599 41.6528C73.4374 42.4429 74.0369 43.4002 74.4589 44.5236C74.8792 45.6442 75.0905 46.8922 75.0917 48.2671H75.1215V53.5497C75.1215 54.4176 75.2656 55.1188 75.554 55.6527C75.8429 56.1867 76.2375 56.5984 76.7372 56.8873C77.2369 57.1768 77.8142 57.3715 78.4697 57.4715C79.1241 57.5715 79.8187 57.6218 80.5519 57.6218C81.0183 57.6218 81.4952 57.6101 81.9843 57.5885C82.4723 57.5663 82.9165 57.5218 83.3164 57.4551V53.7837C83.0946 53.8281 82.8611 53.8614 82.6171 53.8837C82.3725 53.9059 82.1174 53.917 81.8512 53.917C81.0515 53.917 80.518 53.7837 80.2518 53.5164C79.9851 53.2491 79.852 52.7152 79.852 51.914V43.3698H83.3164Z" fill="black"/>
</svg>
