<svg width="231" height="141" viewBox="0 0 231 141" fill="none" xmlns="http://www.w3.org/2000/svg">
<path fill-rule="evenodd" clip-rule="evenodd" d="M133.492 77.1149C133.694 78.1106 134.039 79.0043 134.528 79.797C135.015 80.5897 135.664 81.2219 136.472 81.6945C137.28 82.167 138.291 82.4029 139.503 82.4029C140.715 82.4029 141.732 82.167 142.559 81.6945C143.384 81.2219 144.04 80.5897 144.528 79.797C145.016 79.0043 145.362 78.1106 145.564 77.1149C145.766 76.12 145.867 75.0995 145.867 74.0532C145.867 73.0078 145.766 71.9784 145.564 70.9659C145.362 69.9542 145.016 69.0604 144.528 68.2837C144.04 67.5079 143.384 66.8757 142.559 66.3863C141.732 65.8977 140.715 65.6521 139.503 65.6521C138.291 65.6521 137.28 65.8977 136.472 66.3863C135.664 66.8757 135.015 67.5079 134.528 68.2837C134.039 69.0604 133.694 69.9542 133.492 70.9659C133.29 71.9784 133.189 73.0078 133.189 74.0532C133.189 75.0995 133.29 76.12 133.492 77.1149ZM126.977 68.36C127.616 66.6567 128.525 65.2062 129.703 64.0083C130.882 62.8104 132.296 61.883 133.946 61.2251C135.596 60.5672 137.448 60.2382 139.503 60.2382C141.556 60.2382 143.417 60.5672 145.084 61.2251C146.751 61.883 148.173 62.8104 149.352 64.0083C150.53 65.2062 151.439 66.6567 152.08 68.36C152.719 70.0642 153.039 71.9616 153.039 74.0533C153.039 76.1449 152.719 78.0344 152.08 79.7208C151.439 81.4081 150.53 82.8498 149.352 84.0477C148.173 85.2456 146.751 86.165 145.084 86.8052C143.417 87.4454 141.556 87.7672 139.503 87.7672C137.448 87.7672 135.596 87.4454 133.946 86.8052C132.296 86.165 130.882 85.2456 129.703 84.0477C128.525 82.8498 127.616 81.4081 126.977 79.7208C126.336 78.0344 126.017 76.1449 126.017 74.0533C126.017 71.9616 126.336 70.0642 126.977 68.36Z" fill="black"/>
<path fill-rule="evenodd" clip-rule="evenodd" d="M170.57 81.6945C171.361 81.2219 172.001 80.6065 172.49 79.8475C172.977 79.0877 173.323 78.2028 173.525 77.1902C173.727 76.1785 173.828 75.15 173.828 74.1038C173.828 73.0584 173.718 72.029 173.5 71.0164C173.28 70.0047 172.919 69.1021 172.414 68.3094C171.908 67.5168 171.26 66.8757 170.469 66.3863C169.677 65.8977 168.709 65.6521 167.565 65.6521C166.386 65.6521 165.401 65.8977 164.61 66.3863C163.819 66.8757 163.178 67.5079 162.69 68.2837C162.203 69.0604 161.857 69.9542 161.655 70.9659C161.453 71.9784 161.352 73.0247 161.352 74.1038C161.352 75.15 161.461 76.1785 161.68 77.1902C161.899 78.2028 162.253 79.0877 162.741 79.8475C163.228 80.6065 163.878 81.2219 164.686 81.6945C165.494 82.167 166.47 82.4029 167.615 82.4029C168.793 82.4029 169.778 82.167 170.57 81.6945ZM161.251 60.9466V64.2867H161.352C162.227 62.8698 163.339 61.8404 164.686 61.1993C166.032 60.5592 167.514 60.2382 169.13 60.2382C171.184 60.2382 172.952 60.6266 174.434 61.4015C175.916 62.1782 177.144 63.2067 178.121 64.4889C179.097 65.771 179.821 67.2641 180.293 68.9674C180.765 70.6715 181 72.4511 181 74.306C181 76.0607 180.765 77.7471 180.293 79.3661C179.821 80.986 179.106 82.4207 178.147 83.6682C177.187 84.9166 175.991 85.9114 174.561 86.6536C173.129 87.3948 171.454 87.7672 169.535 87.7672C167.918 87.7672 166.428 87.4374 165.065 86.7804C163.701 86.1225 162.58 85.1525 161.705 83.8704H161.604V91.0532H154.432V60.9466H161.251Z" fill="black"/>
<path fill-rule="evenodd" clip-rule="evenodd" d="M50.9213 87.1094H58.0933V60.9467H50.9213V87.1094Z" fill="black"/>
<path fill-rule="evenodd" clip-rule="evenodd" d="M67.1833 80.6066C67.5036 81.1625 67.9161 81.6183 68.4214 81.9729C68.9258 82.3267 69.5073 82.5883 70.164 82.7568C70.8206 82.9261 71.5021 83.0103 72.2092 83.0103C72.7145 83.0103 73.2447 82.9518 73.8004 82.833C74.3562 82.7151 74.8607 82.5298 75.3156 82.2762C75.7705 82.0235 76.1493 81.6866 76.4519 81.2645C76.7555 80.8425 76.9068 80.3113 76.9068 79.6703C76.9068 78.5912 76.1908 77.7808 74.7598 77.2417C73.3287 76.7018 71.3331 76.1618 68.7745 75.6218C67.7302 75.386 66.7116 75.1084 65.7186 74.7866C64.7247 74.4665 63.8415 74.0453 63.0671 73.5213C62.2919 72.9991 61.6697 72.3412 61.198 71.5485C60.7263 70.7558 60.4909 69.7858 60.4909 68.6385C60.4909 66.952 60.8192 65.5689 61.4759 64.4889C62.1326 63.4098 62.999 62.5578 64.0769 61.9335C65.1548 61.3093 66.3664 60.8704 67.7143 60.6177C69.0604 60.3642 70.4419 60.2383 71.8561 60.2383C73.2703 60.2383 74.6412 60.373 75.9722 60.6426C77.3024 60.913 78.4892 61.3687 79.5335 62.0089C80.5769 62.65 81.4442 63.502 82.1345 64.5643C82.8239 65.6274 83.2372 66.968 83.3718 68.5879H76.5528C76.4519 67.2047 75.9298 66.2684 74.9872 65.779C74.0438 65.2904 72.9331 65.0457 71.6534 65.0457C71.2499 65.0457 70.8118 65.0705 70.3401 65.1211C69.8684 65.1716 69.4392 65.2816 69.0524 65.45C68.6648 65.6194 68.3364 65.8641 68.0674 66.1842C67.7975 66.5052 67.6638 66.9352 67.6638 67.4743C67.6638 68.1153 67.8984 68.6385 68.3709 69.0428C68.8418 69.448 69.4568 69.7769 70.2144 70.0296C70.972 70.2832 71.8384 70.5102 72.8154 70.7133C73.7916 70.9154 74.7855 71.1353 75.7952 71.3712C76.8387 71.607 77.8573 71.8943 78.8512 72.2312C79.8441 72.569 80.7283 73.0159 81.5026 73.5727C82.277 74.1296 82.9001 74.8212 83.3718 75.6475C83.8435 76.4739 84.0789 77.4944 84.0789 78.7083C84.0789 80.4293 83.7337 81.8719 83.0434 83.0352C82.3531 84.1994 81.4522 85.1357 80.3415 85.8441C79.2299 86.5526 77.9591 87.0509 76.528 87.3364C75.0961 87.6227 73.6403 87.7673 72.1588 87.7673C70.6436 87.7673 69.1613 87.6148 67.7143 87.3115C66.2655 87.0074 64.9778 86.502 63.8503 85.7936C62.7211 85.0851 61.7954 84.1488 61.0714 82.9846C60.3475 81.8204 59.9519 80.3619 59.8846 78.6072H66.7036C66.7036 79.3839 66.8629 80.0498 67.1833 80.6066Z" fill="black"/>
<path fill-rule="evenodd" clip-rule="evenodd" d="M92.6606 77.1149C92.8624 78.1106 93.2076 79.0044 93.6961 79.7971C94.1837 80.5897 94.8324 81.2219 95.6405 81.6945C96.4485 82.1671 97.4591 82.403 98.6707 82.403C99.8832 82.403 100.902 82.1671 101.727 81.6945C102.551 81.2219 103.208 80.5897 103.697 79.7971C104.184 79.0044 104.53 78.1106 104.732 77.1149C104.934 76.1201 105.036 75.0995 105.036 74.0533C105.036 73.0079 104.934 71.9785 104.732 70.9659C104.53 69.9543 104.184 69.0605 103.697 68.2838C103.208 67.508 102.551 66.8758 101.727 66.3863C100.902 65.8978 99.8832 65.6522 98.6707 65.6522C97.4591 65.6522 96.4485 65.8978 95.6405 66.3863C94.8324 66.8758 94.1837 67.508 93.6961 68.2838C93.2076 69.0605 92.8624 69.9543 92.6606 70.9659C92.458 71.9785 92.3571 73.0079 92.3571 74.0533C92.3571 75.0995 92.458 76.1201 92.6606 77.1149ZM86.1444 68.36C86.7842 66.6568 87.6931 65.2062 88.8719 64.0083C90.0508 62.8104 91.465 61.883 93.1147 61.2251C94.7643 60.5672 96.6166 60.2382 98.6707 60.2382C100.725 60.2382 102.586 60.5672 104.252 61.2251C105.919 61.883 107.341 62.8104 108.521 64.0083C109.699 65.2062 110.608 66.6568 111.248 68.36C111.887 70.0642 112.208 71.9617 112.208 74.0533C112.208 76.1449 111.887 78.0344 111.248 79.7208C110.608 81.4081 109.699 82.8498 108.521 84.0477C107.341 85.2456 105.919 86.1651 104.252 86.8052C102.586 87.4454 100.725 87.7673 98.6707 87.7673C96.6166 87.7673 94.7643 87.4454 93.1147 86.8052C91.465 86.1651 90.0508 85.2456 88.8719 84.0477C87.6931 82.8498 86.7842 81.4081 86.1444 79.7208C85.5045 78.0344 85.185 76.1449 85.185 74.0533C85.185 71.9617 85.5045 70.0642 86.1444 68.36Z" fill="black"/>
<path fill-rule="evenodd" clip-rule="evenodd" d="M59.0147 54.5158C59.0147 57.0099 56.9968 59.0315 54.5073 59.0315C52.0178 59.0315 50 57.0099 50 54.5158C50 52.0216 52.0178 50 54.5073 50C56.9968 50 59.0147 52.0216 59.0147 54.5158Z" fill="black"/>
<path fill-rule="evenodd" clip-rule="evenodd" d="M126.318 65.7542V60.9467H121.066V56.0364H113.894V60.9467H107.169V60.9529C108.297 61.5416 109.296 62.2722 110.162 63.1509C111.341 64.3488 112.249 65.8003 112.889 67.5035C113.527 69.2024 113.847 71.0945 113.849 73.1791H113.894V81.1882C113.894 82.5041 114.112 83.5672 114.55 84.3767C114.988 85.1862 115.586 85.8104 116.343 86.2484C117.101 86.6873 117.976 86.9826 118.97 87.1342C119.962 87.2858 121.015 87.3621 122.127 87.3621C122.834 87.3621 123.557 87.3443 124.299 87.3115C125.039 87.2778 125.712 87.2104 126.318 87.1094V81.5429C125.982 81.6103 125.628 81.6608 125.258 81.6945C124.887 81.7282 124.501 81.7451 124.097 81.7451C122.885 81.7451 122.076 81.5429 121.672 81.1377C121.268 80.7325 121.066 79.923 121.066 78.7083V65.7542H126.318Z" fill="black"/>
</svg>
