<svg width="24" height="24" viewBox="0 0 24 24" fill="none" xmlns="http://www.w3.org/2000/svg">
<path fill-rule="evenodd" clip-rule="evenodd" d="M17.843 9.618C16.968 9.227 16.007 9 15 9C12.258 9 9.836 10.612 8.698 13H4.5C2.015 13 0 10.985 0 8.5C0 6.153 1.804 4.248 4.097 4.041C4.545 1.739 6.567 0 9 0C11.433 0 13.455 1.739 13.903 4.041C16.197 4.248 18 6.153 18 8.5C18 8.888 17.936 9.258 17.843 9.618ZM15 11C17.433 11 19.455 12.739 19.903 15.041C22.197 15.248 24 17.153 24 19.5C24 21.985 21.985 24 19.5 24H10.5C8.015 24 6 21.985 6 19.5C6 17.153 7.804 15.248 10.097 15.041C10.545 12.739 12.567 11 15 11Z" fill="white"/>
</svg>
