<svg width="24" height="24" viewBox="0 0 24 24" fill="none" xmlns="http://www.w3.org/2000/svg">
<path fill-rule="evenodd" clip-rule="evenodd" d="M23 9C23 11.761 20.761 14 18 14H6C3.239 14 1 11.761 1 9C1 6.239 3.239 4 6 4H6.712C7.366 1.693 9.483 0 12 0C14.517 0 16.634 1.693 17.288 4H18C20.761 4 23 6.239 23 9ZM4 24C2.528 24 1.5 22.801 1.5 21.085C1.5 19.368 4 16 4 16C4 16 6.5 19.368 6.5 21.085C6.5 22.801 5.472 24 4 24ZM9.5 21.085C9.5 22.801 10.528 24 12 24C13.472 24 14.5 22.801 14.5 21.085C14.5 19.368 12 16 12 16C12 16 9.5 19.368 9.5 21.085ZM20 24C18.528 24 17.5 22.801 17.5 21.085C17.5 19.368 20 16 20 16C20 16 22.5 19.368 22.5 21.085C22.5 22.801 21.472 24 20 24Z" fill="white"/>
</svg>
