<svg width="24" height="24" viewBox="0 0 24 24" fill="none" xmlns="http://www.w3.org/2000/svg">
<path color="black" d="M13.9985 3.99902C13.9985 2.89445 13.1031 1.99902 11.9985 1.99902C10.894 1.99902 9.99854 2.89445 9.99854 3.99902L9.99853 9.99902H3.99854C2.89397 9.99902 1.99854 10.8945 1.99854 11.999C1.99854 13.1036 2.89397 13.999 3.99854 13.999H9.99853L9.99853 19.999C9.99853 21.1036 10.894 21.999 11.9985 21.999C13.1031 21.999 13.9985 21.1036 13.9985 19.999V13.999H19.9985C21.1031 13.999 21.9985 13.1036 21.9985 11.999C21.9985 10.8945 21.1031 9.99902 19.9985 9.99902H13.9985V3.99902Z" fill="white"/>
</svg>
