<svg width="24" height="24" viewBox="0 0 24 24" fill="none" xmlns="http://www.w3.org/2000/svg">
<path fill-rule="evenodd" clip-rule="evenodd" d="M19.833 4.167L24 5.858L22.331 10L23.998 14.142L19.831 15.833L19.421 16.859C18.897 15.683 18.037 14.699 16.945 14.021C18.184 13.111 18.998 11.655 18.998 10C18.998 7.239 16.759 5 13.998 5C11.577 5 9.558 6.722 9.098 9.008C9.08226 9.00754 9.06696 9.00579 9.05168 9.00404C9.03395 9.00202 9.01626 9 8.998 9C7.78 9 6.631 9.331 5.621 9.892L3.998 5.858L8.165 4.167L9.832 0L13.999 1.667L18.166 0L19.833 4.167ZM9 11C11.433 11 13.455 12.739 13.903 15.041C16.197 15.248 18 17.153 18 19.5C18 21.985 15.985 24 13.5 24H4.5C2.015 24 0 21.985 0 19.5C0 17.153 1.804 15.248 4.097 15.041C4.545 12.739 6.567 11 9 11Z" fill="white"/>
</svg>
