<svg width="24" height="24" viewBox="0 0 24 24" fill="none" xmlns="http://www.w3.org/2000/svg">
<path fill-rule="evenodd" clip-rule="evenodd" d="M3.5 2C3.5 2 6 5.368 6 7.085C6 8.801 4.972 10 3.5 10C2.028 10 1 8.801 1 7.085C1 5.368 3.5 2 3.5 2ZM12 2C12 2 9.5 5.368 9.5 7.085C9.5 8.801 10.528 10 12 10C13.472 10 14.5 8.801 14.5 7.085C14.5 5.368 12 2 12 2ZM20.5 2C20.5 2 18 5.368 18 7.085C18 8.801 19.028 10 20.5 10C21.972 10 23 8.801 23 7.085C23 5.368 20.5 2 20.5 2ZM3 18.356C3 20.501 4.439 22 6.5 22C8.561 22 10 20.501 10 18.356C10 16.21 6.5 12 6.5 12C6.5 12 3 16.21 3 18.356ZM17.5 22C15.439 22 14 20.501 14 18.356C14 16.21 17.5 12 17.5 12C17.5 12 21 16.21 21 18.356C21 20.501 19.561 22 17.5 22Z" fill="white"/>
</svg>
