<svg width="132" height="42" viewBox="0 0 132 42" fill="none" xmlns="http://www.w3.org/2000/svg">
<path fill-rule="evenodd" clip-rule="evenodd" d="M84.1294 27.1148C84.3327 28.1106 84.6805 29.0043 85.1728 29.797C85.6641 30.5897 86.3178 31.2219 87.1319 31.6944C87.9461 32.167 88.9645 32.4029 90.1862 32.4029C91.407 32.4029 92.4326 32.167 93.2655 31.6944C94.0966 31.2219 94.7574 30.5897 95.2496 29.797C95.741 29.0043 96.0897 28.1106 96.293 27.1148C96.4972 26.12 96.5989 25.0995 96.5989 24.0532C96.5989 23.0078 96.4972 21.9784 96.293 20.9659C96.0897 19.9542 95.741 19.0604 95.2496 18.2837C94.7574 17.5079 94.0966 16.8757 93.2655 16.3863C92.4326 15.8977 91.407 15.6521 90.1862 15.6521C88.9645 15.6521 87.9461 15.8977 87.1319 16.3863C86.3178 16.8757 85.6641 17.5079 85.1728 18.2837C84.6805 19.0604 84.3327 19.9542 84.1294 20.9659C83.9261 21.9784 83.8244 23.0078 83.8244 24.0532C83.8244 25.0995 83.9261 26.12 84.1294 27.1148ZM77.5643 18.36C78.2082 16.6567 79.124 15.2062 80.3118 14.0083C81.4996 12.8104 82.9247 11.883 84.5869 11.2251C86.2492 10.5671 88.1156 10.2382 90.1863 10.2382C92.2551 10.2382 94.1305 10.5671 95.8097 11.2251C97.4898 11.883 98.9219 12.8104 100.111 14.0083C101.298 15.2062 102.213 16.6567 102.859 18.36C103.503 20.0642 103.826 21.9616 103.826 24.0532C103.826 26.1449 103.503 28.0343 102.859 29.7208C102.213 31.4081 101.298 32.8498 100.111 34.0477C98.9219 35.2455 97.4898 36.165 95.8097 36.8052C94.1305 37.4454 92.2551 37.7672 90.1863 37.7672C88.1156 37.7672 86.2492 37.4454 84.5869 36.8052C82.9247 36.165 81.4996 35.2455 80.3118 34.0477C79.124 32.8498 78.2082 31.4081 77.5643 29.7208C76.9187 28.0343 76.5967 26.1449 76.5967 24.0532C76.5967 21.9616 76.9187 20.0642 77.5643 18.36Z" fill="white"/>
<path fill-rule="evenodd" clip-rule="evenodd" d="M121.491 31.6944C122.288 31.2219 122.933 30.6065 123.425 29.8475C123.916 29.0877 124.264 28.2028 124.468 27.1902C124.671 26.1785 124.773 25.15 124.773 24.1038C124.773 23.0584 124.663 22.029 124.442 21.0164C124.221 20.0047 123.857 19.1021 123.348 18.3094C122.839 17.5168 122.185 16.8757 121.389 16.3863C120.591 15.8977 119.615 15.6521 118.462 15.6521C117.274 15.6521 116.282 15.8977 115.485 16.3863C114.687 16.8757 114.042 17.5079 113.55 18.2837C113.059 19.0604 112.711 19.9542 112.507 20.9659C112.304 21.9784 112.202 23.0247 112.202 24.1038C112.202 25.15 112.312 26.1785 112.533 27.1902C112.753 28.2028 113.11 29.0877 113.601 29.8475C114.093 30.6065 114.747 31.2219 115.561 31.6944C116.375 32.167 117.359 32.4029 118.513 32.4029C119.7 32.4029 120.692 32.167 121.491 31.6944ZM112.1 10.9466V14.2867H112.202C113.084 12.8698 114.204 11.8404 115.561 11.1993C116.918 10.5592 118.411 10.2382 120.04 10.2382C122.109 10.2382 123.89 10.6266 125.384 11.4015C126.877 12.1782 128.115 13.2067 129.099 14.4888C130.083 15.771 130.812 17.2641 131.287 18.9674C131.763 20.6715 132 22.451 132 24.3059C132 26.0606 131.763 27.7471 131.287 29.3661C130.812 30.986 130.092 32.4207 129.125 33.6682C128.157 34.9166 126.953 35.9114 125.512 36.6536C124.069 37.3948 122.381 37.7672 120.447 37.7672C118.818 37.7672 117.317 37.4374 115.943 36.7804C114.569 36.1225 113.44 35.1524 112.558 33.8703H112.456V41.0532H105.229V10.9466H112.1Z" fill="white"/>
<path fill-rule="evenodd" clip-rule="evenodd" d="M0.928289 37.1094H8.15511V10.9467H0.928289V37.1094Z" fill="white"/>
<path fill-rule="evenodd" clip-rule="evenodd" d="M17.3144 30.6066C17.6373 31.1625 18.0528 31.6183 18.562 31.9729C19.0703 32.3267 19.6562 32.5883 20.3179 32.7567C20.9796 32.9261 21.6662 33.0103 22.3787 33.0103C22.8879 33.0103 23.4221 32.9518 23.9821 32.833C24.5421 32.7151 25.0504 32.5298 25.5088 32.2762C25.9672 32.0235 26.3489 31.6865 26.6538 31.2645C26.9597 30.8424 27.1122 30.3113 27.1122 29.6703C27.1122 28.5912 26.3908 27.7808 24.9488 27.2417C23.5068 26.7017 21.4959 26.1618 18.9178 25.6218C17.8655 25.3859 16.8391 25.1084 15.8386 24.7866C14.8371 24.4665 13.9472 24.0453 13.1669 23.5213C12.3857 22.9991 11.7588 22.3412 11.2835 21.5485C10.8082 20.7558 10.571 19.7858 10.571 18.6385C10.571 16.952 10.9018 15.5688 11.5635 14.4889C12.2252 13.4098 13.0982 12.5577 14.1844 11.9335C15.2705 11.3093 16.4913 10.8704 17.8495 10.6177C19.2059 10.3642 20.5979 10.2382 22.0229 10.2382C23.448 10.2382 24.8293 10.373 26.1705 10.6426C27.5108 10.913 28.7067 11.3687 29.7589 12.0089C30.8103 12.65 31.6842 13.502 32.3798 14.5643C33.0745 15.6274 33.4909 16.968 33.6265 18.5879H26.7555C26.6538 17.2047 26.1277 16.2684 25.178 15.779C24.2274 15.2904 23.1082 15.0457 21.8187 15.0457C21.4121 15.0457 20.9706 15.0705 20.4953 15.1211C20.02 15.1716 19.5875 15.2816 19.1978 15.45C18.8072 15.6194 18.4764 15.8641 18.2053 16.1842C17.9333 16.5052 17.7987 16.9352 17.7987 17.4743C17.7987 18.1153 18.035 18.6385 18.5112 19.0428C18.9856 19.448 19.6054 19.7769 20.3687 20.0296C21.1321 20.2832 22.0051 20.5102 22.9896 20.7132C23.9732 20.9154 24.9746 21.1353 25.9921 21.3711C27.0435 21.607 28.0699 21.8943 29.0714 22.2312C30.0719 22.569 30.9628 23.0159 31.7431 23.5727C32.5234 24.1295 33.1512 24.8211 33.6265 25.6475C34.1018 26.4739 34.339 27.4944 34.339 28.7083C34.339 30.4293 33.9912 31.8719 33.2957 33.0352C32.6001 34.1993 31.6923 35.1357 30.5731 35.8441C29.4531 36.5525 28.1725 37.0508 26.7305 37.3363C25.2877 37.6227 23.8207 37.7673 22.3279 37.7673C20.8012 37.7673 19.3075 37.6148 17.8495 37.3115C16.3897 37.0074 15.0922 36.502 13.9561 35.7936C12.8182 35.0851 11.8854 34.1488 11.1559 32.9846C10.4265 31.8204 10.0279 30.3619 9.9601 28.6072H16.8311C16.8311 29.3839 16.9916 30.0498 17.3144 30.6066Z" fill="white"/>
<path fill-rule="evenodd" clip-rule="evenodd" d="M42.9863 27.1149C43.1896 28.1106 43.5374 29.0044 44.0296 29.7971C44.521 30.5897 45.1747 31.2219 45.9888 31.6945C46.803 32.1671 47.8214 32.4029 49.0422 32.4029C50.2639 32.4029 51.2903 32.1671 52.1215 31.6945C52.9526 31.2219 53.6143 30.5897 54.1065 29.7971C54.5979 29.0044 54.9466 28.1106 55.1499 27.1149C55.3532 26.1201 55.4557 25.0995 55.4557 24.0533C55.4557 23.0079 55.3532 21.9785 55.1499 20.9659C54.9466 19.9542 54.5979 19.0605 54.1065 18.2838C53.6143 17.508 52.9526 16.8758 52.1215 16.3863C51.2903 15.8978 50.2639 15.6522 49.0422 15.6522C47.8214 15.6522 46.803 15.8978 45.9888 16.3863C45.1747 16.8758 44.521 17.508 44.0296 18.2838C43.5374 19.0605 43.1896 19.9542 42.9863 20.9659C42.7821 21.9785 42.6804 23.0079 42.6804 24.0533C42.6804 25.0995 42.7821 26.1201 42.9863 27.1149ZM36.4203 18.36C37.065 16.6568 37.9808 15.2062 39.1687 14.0083C40.3565 12.8104 41.7815 11.883 43.4438 11.2251C45.106 10.5672 46.9724 10.2382 49.0422 10.2382C51.112 10.2382 52.9874 10.5672 54.6665 11.2251C56.3457 11.883 57.7788 12.8104 58.9675 14.0083C60.1544 15.2062 61.0703 16.6568 61.715 18.36C62.3598 20.0642 62.6826 21.9616 62.6826 24.0533C62.6826 26.1449 62.3598 28.0344 61.715 29.7208C61.0703 31.4081 60.1544 32.8498 58.9675 34.0477C57.7788 35.2456 56.3457 36.1651 54.6665 36.8052C52.9874 37.4454 51.112 37.7672 49.0422 37.7672C46.9724 37.7672 45.106 37.4454 43.4438 36.8052C41.7815 36.1651 40.3565 35.2456 39.1687 34.0477C37.9808 32.8498 37.065 31.4081 36.4203 29.7208C35.7755 28.0344 35.4536 26.1449 35.4536 24.0533C35.4536 21.9616 35.7755 20.0642 36.4203 18.36Z" fill="white"/>
<path fill-rule="evenodd" clip-rule="evenodd" d="M9.08346 4.51576C9.08346 7.00993 7.05025 9.03152 4.54173 9.03152C2.03321 9.03152 0 7.00993 0 4.51576C0 2.02158 2.03321 0 4.54173 0C7.05025 0 9.08346 2.02158 9.08346 4.51576Z" fill="white"/>
<path fill-rule="evenodd" clip-rule="evenodd" d="M76.9009 15.7542V10.9467H71.6083V6.03636H64.3815V10.9467H57.605V10.9529C58.742 11.5416 59.7488 12.2722 60.6209 13.1509C61.8088 14.3488 62.7246 15.8003 63.3693 17.5035C64.0114 19.2024 64.3342 21.0945 64.336 23.179H64.3815V31.1882C64.3815 32.504 64.6018 33.5671 65.0423 34.3767C65.4837 35.1862 66.0865 35.8104 66.8499 36.2484C67.6132 36.6873 68.4952 36.9826 69.4966 37.1342C70.4963 37.2858 71.5575 37.362 72.6775 37.362C73.39 37.362 74.1186 37.3443 74.8659 37.3115C75.6114 37.2778 76.29 37.2104 76.9009 37.1093V31.5429C76.562 31.6103 76.2053 31.6608 75.8326 31.6945C75.4589 31.7282 75.0692 31.7451 74.6626 31.7451C73.4409 31.7451 72.6258 31.5429 72.2192 31.1377C71.8116 30.7325 71.6083 29.923 71.6083 28.7082V15.7542H76.9009Z" fill="white"/>
</svg>
