<svg width="131" height="42" viewBox="0 0 131 42" fill="none" xmlns="http://www.w3.org/2000/svg">
<path fill-rule="evenodd" clip-rule="evenodd" d="M83.4921 27.1149C83.6939 28.1106 84.039 29.0043 84.5275 29.797C85.0152 30.5897 85.6639 31.2219 86.4719 31.6945C87.2799 32.167 88.2906 32.4029 89.503 32.4029C90.7146 32.4029 91.7324 32.167 92.559 31.6945C93.3838 31.2219 94.0396 30.5897 94.5281 29.797C95.0157 29.0043 95.3618 28.1106 95.5635 27.1149C95.7662 26.12 95.8671 25.0995 95.8671 24.0532C95.8671 23.0078 95.7662 21.9784 95.5635 20.9659C95.3618 19.9542 95.0157 19.0604 94.5281 18.2837C94.0396 17.5079 93.3838 16.8757 92.559 16.3863C91.7324 15.8977 90.7146 15.6521 89.503 15.6521C88.2906 15.6521 87.2799 15.8977 86.4719 16.3863C85.6639 16.8757 85.0152 17.5079 84.5275 18.2837C84.039 19.0604 83.6939 19.9542 83.4921 20.9659C83.2903 21.9784 83.1894 23.0078 83.1894 24.0532C83.1894 25.0995 83.2903 26.12 83.4921 27.1149ZM76.9767 18.36C77.6157 16.6567 78.5246 15.2062 79.7034 14.0083C80.8823 12.8104 82.2965 11.883 83.9461 11.2251C85.5958 10.5672 87.4481 10.2382 89.5031 10.2382C91.5563 10.2382 93.4175 10.5672 95.0839 11.2251C96.7513 11.883 98.1726 12.8104 99.3523 14.0083C100.53 15.2062 101.439 16.6567 102.08 18.36C102.719 20.0642 103.039 21.9616 103.039 24.0533C103.039 26.1449 102.719 28.0344 102.08 29.7208C101.439 31.4081 100.53 32.8498 99.3523 34.0477C98.1726 35.2456 96.7513 36.165 95.0839 36.8052C93.4175 37.4454 91.5563 37.7672 89.5031 37.7672C87.4481 37.7672 85.5958 37.4454 83.9461 36.8052C82.2965 36.165 80.8823 35.2456 79.7034 34.0477C78.5246 32.8498 77.6157 31.4081 76.9767 29.7208C76.336 28.0344 76.0165 26.1449 76.0165 24.0533C76.0165 21.9616 76.336 20.0642 76.9767 18.36Z" fill="black"/>
<path fill-rule="evenodd" clip-rule="evenodd" d="M120.57 31.6945C121.361 31.2219 122.001 30.6065 122.49 29.8475C122.977 29.0877 123.323 28.2028 123.525 27.1902C123.727 26.1785 123.828 25.15 123.828 24.1038C123.828 23.0584 123.718 22.029 123.5 21.0164C123.28 20.0047 122.919 19.1021 122.414 18.3094C121.908 17.5168 121.26 16.8757 120.469 16.3863C119.677 15.8977 118.709 15.6521 117.565 15.6521C116.386 15.6521 115.401 15.8977 114.61 16.3863C113.819 16.8757 113.178 17.5079 112.69 18.2837C112.203 19.0604 111.857 19.9542 111.655 20.9659C111.453 21.9784 111.352 23.0247 111.352 24.1038C111.352 25.15 111.461 26.1785 111.68 27.1902C111.899 28.2028 112.253 29.0877 112.741 29.8475C113.228 30.6065 113.878 31.2219 114.686 31.6945C115.494 32.167 116.47 32.4029 117.615 32.4029C118.793 32.4029 119.778 32.167 120.57 31.6945ZM111.251 10.9466V14.2867H111.352C112.227 12.8698 113.339 11.8404 114.686 11.1993C116.032 10.5592 117.514 10.2382 119.13 10.2382C121.184 10.2382 122.952 10.6266 124.434 11.4015C125.916 12.1782 127.144 13.2067 128.121 14.4889C129.097 15.771 129.821 17.2641 130.293 18.9674C130.765 20.6715 131 22.4511 131 24.306C131 26.0607 130.765 27.7471 130.293 29.3661C129.821 30.986 129.106 32.4207 128.147 33.6682C127.187 34.9166 125.991 35.9114 124.561 36.6536C123.129 37.3948 121.454 37.7672 119.535 37.7672C117.918 37.7672 116.428 37.4374 115.065 36.7804C113.701 36.1225 112.58 35.1525 111.705 33.8704H111.604V41.0532H104.432V10.9466H111.251Z" fill="black"/>
<path fill-rule="evenodd" clip-rule="evenodd" d="M0.921257 37.1094H8.09333V10.9467H0.921257V37.1094Z" fill="black"/>
<path fill-rule="evenodd" clip-rule="evenodd" d="M17.1833 30.6066C17.5036 31.1625 17.9161 31.6183 18.4214 31.9729C18.9258 32.3267 19.5073 32.5883 20.164 32.7568C20.8206 32.9261 21.5021 33.0103 22.2092 33.0103C22.7145 33.0103 23.2447 32.9518 23.8004 32.833C24.3562 32.7151 24.8607 32.5298 25.3156 32.2762C25.7705 32.0235 26.1493 31.6866 26.4519 31.2645C26.7555 30.8425 26.9068 30.3113 26.9068 29.6703C26.9068 28.5912 26.1908 27.7808 24.7598 27.2417C23.3287 26.7018 21.3331 26.1618 18.7745 25.6218C17.7302 25.386 16.7116 25.1084 15.7186 24.7866C14.7247 24.4665 13.8415 24.0453 13.0671 23.5213C12.2919 22.9991 11.6697 22.3412 11.198 21.5485C10.7263 20.7558 10.4909 19.7858 10.4909 18.6385C10.4909 16.952 10.8192 15.5689 11.4759 14.4889C12.1326 13.4098 12.999 12.5578 14.0769 11.9335C15.1548 11.3093 16.3664 10.8704 17.7143 10.6177C19.0604 10.3642 20.4419 10.2383 21.8561 10.2383C23.2703 10.2383 24.6412 10.373 25.9722 10.6426C27.3024 10.913 28.4892 11.3687 29.5335 12.0089C30.5769 12.65 31.4442 13.502 32.1345 14.5643C32.8239 15.6274 33.2372 16.968 33.3718 18.5879H26.5528C26.4519 17.2047 25.9298 16.2684 24.9872 15.779C24.0438 15.2904 22.9331 15.0457 21.6534 15.0457C21.2499 15.0457 20.8118 15.0705 20.3401 15.1211C19.8684 15.1716 19.4391 15.2816 19.0524 15.45C18.6648 15.6194 18.3364 15.8641 18.0674 16.1842C17.7975 16.5052 17.6638 16.9352 17.6638 17.4743C17.6638 18.1153 17.8984 18.6385 18.371 19.0428C18.8418 19.448 19.4569 19.7769 20.2144 20.0296C20.972 20.2832 21.8384 20.5102 22.8154 20.7133C23.7916 20.9154 24.7855 21.1353 25.7952 21.3712C26.8387 21.607 27.8573 21.8943 28.8512 22.2312C29.8441 22.569 30.7283 23.0159 31.5026 23.5727C32.277 24.1296 32.9001 24.8212 33.3718 25.6475C33.8435 26.4739 34.0789 27.4944 34.0789 28.7083C34.0789 30.4293 33.7337 31.8719 33.0434 33.0352C32.3531 34.1994 31.4522 35.1357 30.3415 35.8441C29.2299 36.5526 27.9591 37.0508 26.528 37.3364C25.0961 37.6227 23.6403 37.7673 22.1588 37.7673C20.6436 37.7673 19.1613 37.6148 17.7143 37.3115C16.2655 37.0074 14.9778 36.502 13.8503 35.7936C12.7211 35.0851 11.7954 34.1488 11.0714 32.9846C10.3475 31.8204 9.95191 30.3619 9.88465 28.6072H16.7036C16.7036 29.3839 16.8629 30.0498 17.1833 30.6066Z" fill="black"/>
<path fill-rule="evenodd" clip-rule="evenodd" d="M42.6606 27.1149C42.8624 28.1106 43.2076 29.0044 43.6961 29.7971C44.1837 30.5897 44.8324 31.2219 45.6405 31.6945C46.4485 32.1671 47.4591 32.403 48.6707 32.403C49.8832 32.403 50.9018 32.1671 51.7266 31.6945C52.5514 31.2219 53.2081 30.5897 53.6966 29.7971C54.1843 29.0044 54.5303 28.1106 54.7321 27.1149C54.9339 26.1201 55.0356 25.0995 55.0356 24.0533C55.0356 23.0079 54.9339 21.9785 54.7321 20.9659C54.5303 19.9543 54.1843 19.0605 53.6966 18.2838C53.2081 17.508 52.5514 16.8758 51.7266 16.3863C50.9018 15.8978 49.8832 15.6522 48.6707 15.6522C47.4591 15.6522 46.4485 15.8978 45.6405 16.3863C44.8324 16.8758 44.1837 17.508 43.6961 18.2838C43.2076 19.0605 42.8624 19.9543 42.6606 20.9659C42.458 21.9785 42.3571 23.0079 42.3571 24.0533C42.3571 25.0995 42.458 26.1201 42.6606 27.1149ZM36.1444 18.36C36.7842 16.6568 37.6931 15.2062 38.8719 14.0083C40.0508 12.8104 41.465 11.883 43.1147 11.2251C44.7643 10.5672 46.6166 10.2382 48.6707 10.2382C50.7248 10.2382 52.586 10.5672 54.2524 11.2251C55.9189 11.883 57.3411 12.8104 58.5208 14.0083C59.6988 15.2062 60.6077 16.6568 61.2475 18.36C61.8874 20.0642 62.2077 21.9617 62.2077 24.0533C62.2077 26.1449 61.8874 28.0344 61.2475 29.7208C60.6077 31.4081 59.6988 32.8498 58.5208 34.0477C57.3411 35.2456 55.9189 36.1651 54.2524 36.8052C52.586 37.4454 50.7248 37.7673 48.6707 37.7673C46.6166 37.7673 44.7643 37.4454 43.1147 36.8052C41.465 36.1651 40.0508 35.2456 38.8719 34.0477C37.6931 32.8498 36.7842 31.4081 36.1444 29.7208C35.5045 28.0344 35.185 26.1449 35.185 24.0533C35.185 21.9617 35.5045 20.0642 36.1444 18.36Z" fill="black"/>
<path fill-rule="evenodd" clip-rule="evenodd" d="M9.01465 4.51576C9.01465 7.00993 6.99684 9.03152 4.50733 9.03152C2.01781 9.03152 0 7.00993 0 4.51576C0 2.02158 2.01781 0 4.50733 0C6.99684 0 9.01465 2.02158 9.01465 4.51576Z" fill="black"/>
<path fill-rule="evenodd" clip-rule="evenodd" d="M76.3184 15.7542V10.9467H71.0659V6.03636H63.8938V10.9467H57.1686V10.9529C58.297 11.5416 59.2962 12.2722 60.1617 13.1509C61.3405 14.3488 62.2494 15.8003 62.8893 17.5035C63.5265 19.2024 63.8469 21.0945 63.8486 23.1791H63.8938V31.1882C63.8938 32.5041 64.1124 33.5672 64.5496 34.3767C64.9876 35.1862 65.5859 35.8104 66.3435 36.2484C67.101 36.6873 67.9763 36.9826 68.9702 37.1342C69.9623 37.2858 71.0154 37.3621 72.127 37.3621C72.8341 37.3621 73.5571 37.3443 74.2988 37.3115C75.0386 37.2778 75.7121 37.2104 76.3184 37.1094V31.5429C75.982 31.6103 75.628 31.6608 75.2581 31.6945C74.8873 31.7282 74.5006 31.7451 74.097 31.7451C72.8845 31.7451 72.0756 31.5429 71.6721 31.1377C71.2676 30.7325 71.0659 29.923 71.0659 28.7083V15.7542H76.3184Z" fill="black"/>
</svg>
